<svg xmlns="http://www.w3.org/2000/svg" viewBox="0 0 1000 560" role="img" aria-label="Students of Madrasah Darul Falah">
  <defs>
    <linearGradient id="bg" x1="0" y1="0" x2="1" y2="1">
      <stop offset="0" stop-color="#f8fafc"/>
      <stop offset="1" stop-color="#e2e8f0"/>
    </linearGradient>
  </defs>
  <rect width="1000" height="560" fill="url(#bg)"/>
  <circle cx="860" cy="90" r="170" fill="#cbd5e1" opacity="0.4"/>
  <circle cx="120" cy="480" r="200" fill="#94a3b8" opacity="0.18"/>

  <!-- open book -->
  <g transform="translate(500 240)" fill="none" stroke="#64748b" stroke-width="10" stroke-linecap="round" stroke-linejoin="round">
    <path d="M0 -70 C -45 -100 -130 -100 -170 -80 L -170 60 C -130 40 -45 40 0 70 C 45 40 130 40 170 60 L 170 -80 C 130 -100 45 -100 0 -70 Z"/>
    <path d="M0 -70 L 0 70"/>
    <path d="M-135 -40 C -95 -52 -50 -50 -35 -42 M-135 0 C -95 -12 -50 -10 -35 -2" stroke-width="7" opacity="0.6"/>
    <path d="M135 -40 C 95 -52 50 -50 35 -42 M135 0 C 95 -12 50 -10 35 -2" stroke-width="7" opacity="0.6"/>
  </g>

  <text x="500" y="420" text-anchor="middle" font-family="'Instrument Sans', system-ui, sans-serif" font-size="34" font-weight="700" fill="#475569">185 pelajar · 16 guru</text>
  <text x="500" y="460" text-anchor="middle" font-family="'Instrument Sans', system-ui, sans-serif" font-size="22" fill="#64748b">Pendidikan al-Quran &amp; fardu ain — percuma untuk anak yatim &amp; asnaf</text>
</svg>
